<svg xmlns="http://www.w3.org/2000/svg" width="279" height="279"><defs><filter id="a" x="0" y="0" width="279" height="279" filterUnits="userSpaceOnUse"><feOffset dx="10" dy="20"/><feGaussianBlur stdDeviation="28" result="blur"/><feFlood flood-color="#ffd100" flood-opacity=".2"/><feComposite operator="in" in2="blur"/><feComposite in="SourceGraphic"/></filter></defs><g data-name="1"><g filter="url(#a)"><rect data-name="Прямоугольник 6" width="111" height="111" rx="26" transform="translate(74 64)" fill="#f8c90f"/></g><g data-name="Сгруппировать 10781"><g data-name="Сгруппировать 10780" fill="#fff"><path data-name="Контур 12480" d="M121.582 105.673h16.969a2.272 2.272 0 100-4.543h-16.969a2.272 2.272 0 100 4.543z"/><path data-name="Контур 12481" d="M140.823 112.999a2.267 2.267 0 00-2.272-2.271h-16.969a2.272 2.272 0 100 4.543h16.969a2.267 2.267 0 002.272-2.272z"/><path data-name="Контур 12482" d="M161.466 113.1c-3.162-.245-6.77 1.347-10.333 3.763V94.271A2.267 2.267 0 00148.861 92h-37.59A2.267 2.267 0 00109 94.271v50.016a2.267 2.267 0 002.271 2.271h37.579a2.267 2.267 0 002.271-2.271v-21.634c3.763-3.1 7.371-5.211 9.988-5.011a2.278 2.278 0 00.356-4.543zm-14.887 28.916h-33.025V96.554h33.036v23.828a102.213 102.213 0 00-11.747 12.2l-3.251-2.951a2.273 2.273 0 00-3.051 3.369l5.044 4.576a2.274 2.274 0 003.329-.289 136.213 136.213 0 019.676-10.547v15.276z"/></g></g></g></svg>