<svg xmlns="http://www.w3.org/2000/svg" width="279" height="279"><defs><filter id="a" x="0" y="0" width="279" height="279" filterUnits="userSpaceOnUse"><feOffset dx="10" dy="20"/><feGaussianBlur stdDeviation="28" result="blur"/><feFlood flood-color="#32abe0" flood-opacity=".2"/><feComposite operator="in" in2="blur"/><feComposite in="SourceGraphic"/></filter></defs><g data-name="Сгруппировать 10803"><g data-name="Сгруппировать 10774"><g data-name="Сгруппировать 12" transform="translate(130.661 39)" opacity=".2" fill="#32abe0"><circle data-name="Эллипс 4" cx="2.307" cy="2.307" r="2.307" transform="rotate(90 34.99 34.99)"/><circle data-name="Эллипс 4" cx="2.307" cy="2.307" r="2.307" transform="rotate(90 28.453 41.527)"/><circle data-name="Эллипс 4" cx="2.307" cy="2.307" r="2.307" transform="rotate(90 21.917 48.063)"/><circle data-name="Эллипс 4" cx="2.307" cy="2.307" r="2.307" transform="rotate(90 16.39 53.59)"/><circle data-name="Эллипс 4" cx="2.307" cy="2.307" r="2.307" transform="rotate(90 10.19 59.79)"/><circle data-name="Эллипс 4" cx="2.307" cy="2.307" r="2.307" transform="rotate(90 3.99 65.99)"/><circle data-name="Эллипс 4" cx="2.307" cy="2.307" r="2.307" transform="rotate(90 -2.21 72.19)"/><circle data-name="Эллипс 4" cx="2.307" cy="2.307" r="2.307" transform="rotate(90 -8.41 78.39)"/><circle data-name="Эллипс 4" cx="2.307" cy="2.307" r="2.307" transform="rotate(90 -14.61 84.59)"/><circle data-name="Эллипс 4" cx="2.307" cy="2.307" r="2.307" transform="rotate(90 -20.81 90.79)"/><circle data-name="Эллипс 4" cx="2.307" cy="2.307" r="2.307" transform="rotate(90 -26.337 96.317)"/><circle data-name="Эллипс 4" cx="2.307" cy="2.307" r="2.307" transform="rotate(90 -32.873 102.853)"/><circle data-name="Эллипс 4" cx="2.307" cy="2.307" r="2.307" transform="rotate(90 -39.41 109.39)"/><circle data-name="Эллипс 4" cx="2.307" cy="2.307" r="2.307" transform="rotate(90 8.844 8.844)"/><circle data-name="Эллипс 4" cx="2.307" cy="2.307" r="2.307" transform="rotate(90 2.307 15.38)"/><circle data-name="Эллипс 4" cx="2.307" cy="2.307" r="2.307" transform="rotate(90 -4.23 21.917)"/><circle data-name="Эллипс 4" cx="2.307" cy="2.307" r="2.307" transform="rotate(90 -9.757 27.444)"/><circle data-name="Эллипс 4" cx="2.307" cy="2.307" r="2.307" transform="rotate(90 -15.957 33.644)"/><circle data-name="Эллипс 4" cx="2.307" cy="2.307" r="2.307" transform="rotate(90 -22.157 39.844)"/><circle data-name="Эллипс 4" cx="2.307" cy="2.307" r="2.307" transform="rotate(90 -28.356 46.043)"/><circle data-name="Эллипс 4" cx="2.307" cy="2.307" r="2.307" transform="rotate(90 28.453 28.454)"/><circle data-name="Эллипс 4" cx="2.307" cy="2.307" r="2.307" transform="rotate(90 21.917 34.99)"/><circle data-name="Эллипс 4" cx="2.307" cy="2.307" r="2.307" transform="rotate(90 15.38 41.527)"/><circle data-name="Эллипс 4" cx="2.307" cy="2.307" r="2.307" transform="rotate(90 9.853 47.054)"/><circle data-name="Эллипс 4" cx="2.307" cy="2.307" r="2.307" transform="rotate(90 3.653 53.254)"/><circle data-name="Эллипс 4" cx="2.307" cy="2.307" r="2.307" transform="rotate(90 -2.547 59.453)"/><circle data-name="Эллипс 4" cx="2.307" cy="2.307" r="2.307" transform="rotate(90 -8.746 65.653)"/><circle data-name="Эллипс 4" cx="2.307" cy="2.307" r="2.307" transform="rotate(90 -14.946 71.853)"/><circle data-name="Эллипс 4" cx="2.307" cy="2.307" r="2.307" transform="rotate(90 -21.146 78.053)"/><circle data-name="Эллипс 4" cx="2.307" cy="2.307" r="2.307" transform="rotate(90 -27.346 84.253)"/><circle data-name="Эллипс 4" cx="2.307" cy="2.307" r="2.307" transform="rotate(90 -32.873 89.78)"/><circle data-name="Эллипс 4" cx="2.307" cy="2.307" r="2.307" transform="rotate(90 -39.41 96.317)"/><circle data-name="Эллипс 4" cx="2.307" cy="2.307" r="2.307" transform="rotate(90 -45.946 102.853)"/><circle data-name="Эллипс 4" cx="2.307" cy="2.307" r="2.307" transform="rotate(90 2.307 2.307)"/><circle data-name="Эллипс 4" cx="2.307" cy="2.307" r="2.307" transform="rotate(90 -4.23 8.844)"/><circle data-name="Эллипс 4" cx="2.307" cy="2.307" r="2.307" transform="rotate(90 -10.766 15.38)"/><circle data-name="Эллипс 4" cx="2.307" cy="2.307" r="2.307" transform="rotate(90 -16.293 20.907)"/><circle data-name="Эллипс 4" cx="2.307" cy="2.307" r="2.307" transform="rotate(90 -22.493 27.107)"/><circle data-name="Эллипс 4" cx="2.307" cy="2.307" r="2.307" transform="rotate(90 -28.693 33.307)"/><circle data-name="Эллипс 4" cx="2.307" cy="2.307" r="2.307" transform="rotate(90 -34.893 39.507)"/><circle data-name="Эллипс 4" cx="2.307" cy="2.307" r="2.307" transform="rotate(90 21.917 21.917)"/><circle data-name="Эллипс 4" cx="2.307" cy="2.307" r="2.307" transform="rotate(90 15.38 28.454)"/><circle data-name="Эллипс 4" cx="2.307" cy="2.307" r="2.307" transform="rotate(90 8.844 34.99)"/><circle data-name="Эллипс 4" cx="2.307" cy="2.307" r="2.307" transform="rotate(90 3.317 40.517)"/><circle data-name="Эллипс 4" cx="2.307" cy="2.307" r="2.307" transform="rotate(90 -2.883 46.717)"/><circle data-name="Эллипс 4" cx="2.307" cy="2.307" r="2.307" transform="rotate(90 -9.083 52.917)"/><circle data-name="Эллипс 4" cx="2.307" cy="2.307" r="2.307" transform="rotate(90 -15.283 59.117)"/><circle data-name="Эллипс 4" cx="2.307" cy="2.307" r="2.307" transform="rotate(90 -21.483 65.317)"/><circle data-name="Эллипс 4" cx="2.307" cy="2.307" r="2.307" transform="rotate(90 -27.683 71.517)"/><circle data-name="Эллипс 4" cx="2.307" cy="2.307" r="2.307" transform="rotate(90 -33.883 77.717)"/><circle data-name="Эллипс 4" cx="2.307" cy="2.307" r="2.307" transform="rotate(90 -39.41 83.244)"/><circle data-name="Эллипс 4" cx="2.307" cy="2.307" r="2.307" transform="rotate(90 -45.946 89.78)"/><circle data-name="Эллипс 4" cx="2.307" cy="2.307" r="2.307" transform="rotate(90 -52.483 96.317)"/><circle data-name="Эллипс 4" cx="2.307" cy="2.307" r="2.307" transform="rotate(90 -34.556 52.243)"/><circle data-name="Эллипс 4" cx="2.307" cy="2.307" r="2.307" transform="rotate(90 -40.756 58.443)"/><circle data-name="Эллипс 4" cx="2.307" cy="2.307" r="2.307" transform="rotate(90 -46.956 64.643)"/><circle data-name="Эллипс 4" cx="2.307" cy="2.307" r="2.307" transform="rotate(90 -52.483 70.17)"/><circle data-name="Эллипс 4" cx="2.307" cy="2.307" r="2.307" transform="rotate(90 -59.02 76.707)"/><circle data-name="Эллипс 4" cx="2.307" cy="2.307" r="2.307" transform="rotate(90 -65.556 83.243)"/><circle data-name="Эллипс 4" cx="2.307" cy="2.307" r="2.307" transform="rotate(90 15.38 15.38)"/><circle data-name="Эллипс 4" cx="2.307" cy="2.307" r="2.307" transform="rotate(90 8.844 21.917)"/><circle data-name="Эллипс 4" cx="2.307" cy="2.307" r="2.307" transform="rotate(90 2.307 28.454)"/><circle data-name="Эллипс 4" cx="2.307" cy="2.307" r="2.307" transform="rotate(90 -3.22 33.98)"/><circle data-name="Эллипс 4" cx="2.307" cy="2.307" r="2.307" transform="rotate(90 -9.42 40.18)"/><circle data-name="Эллипс 4" cx="2.307" cy="2.307" r="2.307" transform="rotate(90 -15.62 46.38)"/><circle data-name="Эллипс 4" cx="2.307" cy="2.307" r="2.307" transform="rotate(90 -21.819 52.58)"/><circle data-name="Эллипс 4" cx="2.307" cy="2.307" r="2.307" transform="rotate(90 -28.019 58.78)"/><circle data-name="Эллипс 4" cx="2.307" cy="2.307" r="2.307" transform="rotate(90 -34.219 64.98)"/><circle data-name="Эллипс 4" cx="2.307" cy="2.307" r="2.307" transform="rotate(90 -40.419 71.18)"/><circle data-name="Эллипс 4" cx="2.307" cy="2.307" r="2.307" transform="rotate(90 -45.946 76.707)"/><circle data-name="Эллипс 4" cx="2.307" cy="2.307" r="2.307" transform="rotate(90 -52.483 83.243)"/><circle data-name="Эллипс 4" cx="2.307" cy="2.307" r="2.307" transform="rotate(90 -59.019 89.78)"/><circle data-name="Эллипс 4" cx="2.307" cy="2.307" r="2.307" transform="rotate(90 -41.093 45.707)"/><circle data-name="Эллипс 4" cx="2.307" cy="2.307" r="2.307" transform="rotate(90 -47.293 51.907)"/><circle data-name="Эллипс 4" cx="2.307" cy="2.307" r="2.307" transform="rotate(90 -53.493 58.107)"/><circle data-name="Эллипс 4" cx="2.307" cy="2.307" r="2.307" transform="rotate(90 -59.02 63.634)"/><circle data-name="Эллипс 4" cx="2.307" cy="2.307" r="2.307" transform="rotate(90 -65.556 70.17)"/><circle data-name="Эллипс 4" cx="2.307" cy="2.307" r="2.307" transform="rotate(90 -72.093 76.707)"/></g><g transform="translate(0 -.002)" filter="url(#a)"><rect data-name="Прямоугольник 6" width="111" height="111" rx="26" transform="translate(74 64)" fill="#32abe0"/></g></g><g data-name="Сгруппировать 10781"><g data-name="Сгруппировать 10780" fill="#fff"><path data-name="Контур 12480" d="M121.582 105.673h16.969a2.272 2.272 0 100-4.543h-16.969a2.272 2.272 0 100 4.543z"/><path data-name="Контур 12481" d="M140.823 112.999a2.267 2.267 0 00-2.272-2.271h-16.969a2.272 2.272 0 100 4.543h16.969a2.267 2.267 0 002.272-2.272z"/><path data-name="Контур 12482" d="M161.466 113.1c-3.162-.245-6.77 1.347-10.333 3.763V94.271A2.267 2.267 0 00148.861 92h-37.59A2.267 2.267 0 00109 94.271v50.016a2.267 2.267 0 002.271 2.271h37.579a2.267 2.267 0 002.271-2.271v-21.634c3.763-3.1 7.371-5.211 9.988-5.011a2.278 2.278 0 00.356-4.543zm-14.887 28.916h-33.025V96.554h33.036v23.828a102.213 102.213 0 00-11.747 12.2l-3.251-2.951a2.273 2.273 0 00-3.051 3.369l5.044 4.576a2.274 2.274 0 003.329-.289 136.213 136.213 0 019.676-10.547v15.276z"/></g></g></g></svg>