<svg xmlns="http://www.w3.org/2000/svg" width="279" height="279"><defs><filter id="a" x="0" y="0" width="279" height="279" filterUnits="userSpaceOnUse"><feOffset dx="10" dy="20"/><feGaussianBlur stdDeviation="28" result="blur"/><feFlood flood-color="#646974" flood-opacity=".2"/><feComposite operator="in" in2="blur"/><feComposite in="SourceGraphic"/></filter></defs><g data-name="Сгруппировать 10800"><g data-name="Сгруппировать 10778"><g data-name="Сгруппировать 14" transform="translate(130.664 39)" opacity=".1" fill="#646974"><circle data-name="Эллипс 4" cx="2.307" cy="2.307" r="2.307" transform="rotate(90 34.99 34.99)"/><circle data-name="Эллипс 4" cx="2.307" cy="2.307" r="2.307" transform="rotate(90 28.453 41.527)"/><circle data-name="Эллипс 4" cx="2.307" cy="2.307" r="2.307" transform="rotate(90 21.917 48.063)"/><circle data-name="Эллипс 4" cx="2.307" cy="2.307" r="2.307" transform="rotate(90 16.39 53.59)"/><circle data-name="Эллипс 4" cx="2.307" cy="2.307" r="2.307" transform="rotate(90 10.19 59.79)"/><circle data-name="Эллипс 4" cx="2.307" cy="2.307" r="2.307" transform="rotate(90 3.99 65.99)"/><circle data-name="Эллипс 4" cx="2.307" cy="2.307" r="2.307" transform="rotate(90 -2.21 72.19)"/><circle data-name="Эллипс 4" cx="2.307" cy="2.307" r="2.307" transform="rotate(90 -8.41 78.39)"/><circle data-name="Эллипс 4" cx="2.307" cy="2.307" r="2.307" transform="rotate(90 -14.61 84.59)"/><circle data-name="Эллипс 4" cx="2.307" cy="2.307" r="2.307" transform="rotate(90 -20.81 90.79)"/><circle data-name="Эллипс 4" cx="2.307" cy="2.307" r="2.307" transform="rotate(90 -26.337 96.317)"/><circle data-name="Эллипс 4" cx="2.307" cy="2.307" r="2.307" transform="rotate(90 -32.873 102.853)"/><circle data-name="Эллипс 4" cx="2.307" cy="2.307" r="2.307" transform="rotate(90 -39.41 109.39)"/><circle data-name="Эллипс 4" cx="2.307" cy="2.307" r="2.307" transform="rotate(90 8.844 8.844)"/><circle data-name="Эллипс 4" cx="2.307" cy="2.307" r="2.307" transform="rotate(90 2.307 15.38)"/><circle data-name="Эллипс 4" cx="2.307" cy="2.307" r="2.307" transform="rotate(90 -4.23 21.917)"/><circle data-name="Эллипс 4" cx="2.307" cy="2.307" r="2.307" transform="rotate(90 -9.757 27.444)"/><circle data-name="Эллипс 4" cx="2.307" cy="2.307" r="2.307" transform="rotate(90 -15.957 33.644)"/><circle data-name="Эллипс 4" cx="2.307" cy="2.307" r="2.307" transform="rotate(90 -22.157 39.844)"/><circle data-name="Эллипс 4" cx="2.307" cy="2.307" r="2.307" transform="rotate(90 -28.356 46.043)"/><circle data-name="Эллипс 4" cx="2.307" cy="2.307" r="2.307" transform="rotate(90 28.453 28.454)"/><circle data-name="Эллипс 4" cx="2.307" cy="2.307" r="2.307" transform="rotate(90 21.917 34.99)"/><circle data-name="Эллипс 4" cx="2.307" cy="2.307" r="2.307" transform="rotate(90 15.38 41.527)"/><circle data-name="Эллипс 4" cx="2.307" cy="2.307" r="2.307" transform="rotate(90 9.853 47.054)"/><circle data-name="Эллипс 4" cx="2.307" cy="2.307" r="2.307" transform="rotate(90 3.653 53.254)"/><circle data-name="Эллипс 4" cx="2.307" cy="2.307" r="2.307" transform="rotate(90 -2.547 59.453)"/><circle data-name="Эллипс 4" cx="2.307" cy="2.307" r="2.307" transform="rotate(90 -8.746 65.653)"/><circle data-name="Эллипс 4" cx="2.307" cy="2.307" r="2.307" transform="rotate(90 -14.946 71.853)"/><circle data-name="Эллипс 4" cx="2.307" cy="2.307" r="2.307" transform="rotate(90 -21.146 78.053)"/><circle data-name="Эллипс 4" cx="2.307" cy="2.307" r="2.307" transform="rotate(90 -27.346 84.253)"/><circle data-name="Эллипс 4" cx="2.307" cy="2.307" r="2.307" transform="rotate(90 -32.873 89.78)"/><circle data-name="Эллипс 4" cx="2.307" cy="2.307" r="2.307" transform="rotate(90 -39.41 96.317)"/><circle data-name="Эллипс 4" cx="2.307" cy="2.307" r="2.307" transform="rotate(90 -45.946 102.853)"/><circle data-name="Эллипс 4" cx="2.307" cy="2.307" r="2.307" transform="rotate(90 2.307 2.307)"/><circle data-name="Эллипс 4" cx="2.307" cy="2.307" r="2.307" transform="rotate(90 -4.23 8.844)"/><circle data-name="Эллипс 4" cx="2.307" cy="2.307" r="2.307" transform="rotate(90 -10.766 15.38)"/><circle data-name="Эллипс 4" cx="2.307" cy="2.307" r="2.307" transform="rotate(90 -16.293 20.907)"/><circle data-name="Эллипс 4" cx="2.307" cy="2.307" r="2.307" transform="rotate(90 -22.493 27.107)"/><circle data-name="Эллипс 4" cx="2.307" cy="2.307" r="2.307" transform="rotate(90 -28.693 33.307)"/><circle data-name="Эллипс 4" cx="2.307" cy="2.307" r="2.307" transform="rotate(90 -34.893 39.507)"/><circle data-name="Эллипс 4" cx="2.307" cy="2.307" r="2.307" transform="rotate(90 21.917 21.917)"/><circle data-name="Эллипс 4" cx="2.307" cy="2.307" r="2.307" transform="rotate(90 15.38 28.454)"/><circle data-name="Эллипс 4" cx="2.307" cy="2.307" r="2.307" transform="rotate(90 8.844 34.99)"/><circle data-name="Эллипс 4" cx="2.307" cy="2.307" r="2.307" transform="rotate(90 3.317 40.517)"/><circle data-name="Эллипс 4" cx="2.307" cy="2.307" r="2.307" transform="rotate(90 -2.883 46.717)"/><circle data-name="Эллипс 4" cx="2.307" cy="2.307" r="2.307" transform="rotate(90 -9.083 52.917)"/><circle data-name="Эллипс 4" cx="2.307" cy="2.307" r="2.307" transform="rotate(90 -15.283 59.117)"/><circle data-name="Эллипс 4" cx="2.307" cy="2.307" r="2.307" transform="rotate(90 -21.483 65.317)"/><circle data-name="Эллипс 4" cx="2.307" cy="2.307" r="2.307" transform="rotate(90 -27.683 71.517)"/><circle data-name="Эллипс 4" cx="2.307" cy="2.307" r="2.307" transform="rotate(90 -33.883 77.717)"/><circle data-name="Эллипс 4" cx="2.307" cy="2.307" r="2.307" transform="rotate(90 -39.41 83.244)"/><circle data-name="Эллипс 4" cx="2.307" cy="2.307" r="2.307" transform="rotate(90 -45.946 89.78)"/><circle data-name="Эллипс 4" cx="2.307" cy="2.307" r="2.307" transform="rotate(90 -52.483 96.317)"/><circle data-name="Эллипс 4" cx="2.307" cy="2.307" r="2.307" transform="rotate(90 -34.556 52.243)"/><circle data-name="Эллипс 4" cx="2.307" cy="2.307" r="2.307" transform="rotate(90 -40.756 58.443)"/><circle data-name="Эллипс 4" cx="2.307" cy="2.307" r="2.307" transform="rotate(90 -46.956 64.643)"/><circle data-name="Эллипс 4" cx="2.307" cy="2.307" r="2.307" transform="rotate(90 -52.483 70.17)"/><circle data-name="Эллипс 4" cx="2.307" cy="2.307" r="2.307" transform="rotate(90 -59.02 76.707)"/><circle data-name="Эллипс 4" cx="2.307" cy="2.307" r="2.307" transform="rotate(90 -65.556 83.243)"/><circle data-name="Эллипс 4" cx="2.307" cy="2.307" r="2.307" transform="rotate(90 15.38 15.38)"/><circle data-name="Эллипс 4" cx="2.307" cy="2.307" r="2.307" transform="rotate(90 8.844 21.917)"/><circle data-name="Эллипс 4" cx="2.307" cy="2.307" r="2.307" transform="rotate(90 2.307 28.454)"/><circle data-name="Эллипс 4" cx="2.307" cy="2.307" r="2.307" transform="rotate(90 -3.22 33.98)"/><circle data-name="Эллипс 4" cx="2.307" cy="2.307" r="2.307" transform="rotate(90 -9.42 40.18)"/><circle data-name="Эллипс 4" cx="2.307" cy="2.307" r="2.307" transform="rotate(90 -15.62 46.38)"/><circle data-name="Эллипс 4" cx="2.307" cy="2.307" r="2.307" transform="rotate(90 -21.819 52.58)"/><circle data-name="Эллипс 4" cx="2.307" cy="2.307" r="2.307" transform="rotate(90 -28.019 58.78)"/><circle data-name="Эллипс 4" cx="2.307" cy="2.307" r="2.307" transform="rotate(90 -34.219 64.98)"/><circle data-name="Эллипс 4" cx="2.307" cy="2.307" r="2.307" transform="rotate(90 -40.419 71.18)"/><circle data-name="Эллипс 4" cx="2.307" cy="2.307" r="2.307" transform="rotate(90 -45.946 76.707)"/><circle data-name="Эллипс 4" cx="2.307" cy="2.307" r="2.307" transform="rotate(90 -52.483 83.243)"/><circle data-name="Эллипс 4" cx="2.307" cy="2.307" r="2.307" transform="rotate(90 -59.019 89.78)"/><circle data-name="Эллипс 4" cx="2.307" cy="2.307" r="2.307" transform="rotate(90 -41.093 45.707)"/><circle data-name="Эллипс 4" cx="2.307" cy="2.307" r="2.307" transform="rotate(90 -47.293 51.907)"/><circle data-name="Эллипс 4" cx="2.307" cy="2.307" r="2.307" transform="rotate(90 -53.493 58.107)"/><circle data-name="Эллипс 4" cx="2.307" cy="2.307" r="2.307" transform="rotate(90 -59.02 63.634)"/><circle data-name="Эллипс 4" cx="2.307" cy="2.307" r="2.307" transform="rotate(90 -65.556 70.17)"/><circle data-name="Эллипс 4" cx="2.307" cy="2.307" r="2.307" transform="rotate(90 -72.093 76.707)"/></g></g><g data-name="Сгруппировать 10799"><g filter="url(#a)"><rect data-name="Прямоугольник 6" width="111" height="111" rx="26" transform="translate(74 64)" fill="#646974"/></g><g fill="#fff"><path data-name="Контур 12483" d="M154.545 121.573a5.033 5.033 0 00-5.685 1.732l-6.22 8.134v-.133a5.574 5.574 0 00-5.567-5.567h-11.046a11.351 11.351 0 00-12.556-1.431v-.239a1.67 1.67 0 00-1.67-1.67h-9.131a1.67 1.67 0 00-1.67 1.67v22.269a1.67 1.67 0 001.67 1.67h9.13a1.67 1.67 0 001.67-1.67v-1.67h27.376a11.643 11.643 0 009.834-5.369l6.52-10.139a5.088 5.088 0 00.81-2.757 5.032 5.032 0 00-3.464-4.829zm-44.415 23.095h-5.79V125.74h5.79zm44.258-17.315l-6.518 10.139a8.316 8.316 0 01-7.025 3.835h-27.374v-13.058l.559-.4a8.005 8.005 0 0110.2.743 1.67 1.67 0 001.158.466h11.688a2.227 2.227 0 010 4.454h-11.914a1.67 1.67 0 100 3.34h13.4a8.4 8.4 0 006.633-3.278l6.317-8.261a1.758 1.758 0 013.155 1.068 1.754 1.754 0 01-.278.953z"/><path data-name="Контур 12484" d="M130.178 111.011a5.391 5.391 0 002.7 1.012v.688a1.113 1.113 0 002.227 0v-.8a4.528 4.528 0 003.3-3.608 3.985 3.985 0 00-2.709-4.508 39.13 39.13 0 01-.589-.213v-3.6a1.531 1.531 0 01.542.322 1.114 1.114 0 001.673-1.47 3.866 3.866 0 00-2.215-1.144v-.571a1.113 1.113 0 00-2.227 0v.693a5.93 5.93 0 00-.208.058 3.751 3.751 0 00-2.572 2.94 3.332 3.332 0 001.1 3.282 8.218 8.218 0 001.679.982v4.7a3.372 3.372 0 01-1.482-.635 1.117 1.117 0 10-1.219 1.872zm4.928-5.052a1.723 1.723 0 011.1 1.98 2.3 2.3 0 01-1.1 1.6zm-2.532-3.613a1.153 1.153 0 01-.287-1.117 1.659 1.659 0 01.591-1v2.329a3.142 3.142 0 01-.3-.214z"/><path data-name="Контур 12485" d="M134.069 118.836a13.918 13.918 0 10-13.918-13.918 13.934 13.934 0 0013.918 13.918zm0-24.5a10.578 10.578 0 11-10.578 10.582 10.59 10.59 0 0110.578-10.578z"/></g></g></g></svg>