<svg xmlns="http://www.w3.org/2000/svg" width="278" height="279"><defs><filter id="a" x="0" y="0" width="278" height="279" filterUnits="userSpaceOnUse"><feOffset dx="10" dy="20"/><feGaussianBlur stdDeviation="28" result="blur"/><feFlood flood-color="#0d13d7" flood-opacity=".102"/><feComposite operator="in" in2="blur"/><feComposite in="SourceGraphic"/></filter></defs><g data-name="Сгруппировать 10802"><g data-name="Сгруппировать 10776"><g data-name="Сгруппировать 9" transform="translate(130.163 39)" opacity=".1" fill="#32abe0"><circle data-name="Эллипс 4" cx="2.307" cy="2.307" r="2.307" transform="rotate(90 34.99 34.99)"/><circle data-name="Эллипс 4" cx="2.307" cy="2.307" r="2.307" transform="rotate(90 28.453 41.527)"/><circle data-name="Эллипс 4" cx="2.307" cy="2.307" r="2.307" transform="rotate(90 21.917 48.063)"/><circle data-name="Эллипс 4" cx="2.307" cy="2.307" r="2.307" transform="rotate(90 16.39 53.59)"/><circle data-name="Эллипс 4" cx="2.307" cy="2.307" r="2.307" transform="rotate(90 10.19 59.79)"/><circle data-name="Эллипс 4" cx="2.307" cy="2.307" r="2.307" transform="rotate(90 3.99 65.99)"/><circle data-name="Эллипс 4" cx="2.307" cy="2.307" r="2.307" transform="rotate(90 -2.21 72.19)"/><circle data-name="Эллипс 4" cx="2.307" cy="2.307" r="2.307" transform="rotate(90 -8.41 78.39)"/><circle data-name="Эллипс 4" cx="2.307" cy="2.307" r="2.307" transform="rotate(90 -14.61 84.59)"/><circle data-name="Эллипс 4" cx="2.307" cy="2.307" r="2.307" transform="rotate(90 -20.81 90.79)"/><circle data-name="Эллипс 4" cx="2.307" cy="2.307" r="2.307" transform="rotate(90 -26.337 96.317)"/><circle data-name="Эллипс 4" cx="2.307" cy="2.307" r="2.307" transform="rotate(90 -32.873 102.853)"/><circle data-name="Эллипс 4" cx="2.307" cy="2.307" r="2.307" transform="rotate(90 -39.41 109.39)"/><circle data-name="Эллипс 4" cx="2.307" cy="2.307" r="2.307" transform="rotate(90 8.844 8.844)"/><circle data-name="Эллипс 4" cx="2.307" cy="2.307" r="2.307" transform="rotate(90 2.307 15.38)"/><circle data-name="Эллипс 4" cx="2.307" cy="2.307" r="2.307" transform="rotate(90 -4.23 21.917)"/><circle data-name="Эллипс 4" cx="2.307" cy="2.307" r="2.307" transform="rotate(90 -9.757 27.444)"/><circle data-name="Эллипс 4" cx="2.307" cy="2.307" r="2.307" transform="rotate(90 -15.957 33.644)"/><circle data-name="Эллипс 4" cx="2.307" cy="2.307" r="2.307" transform="rotate(90 -22.157 39.844)"/><circle data-name="Эллипс 4" cx="2.307" cy="2.307" r="2.307" transform="rotate(90 -28.356 46.043)"/><circle data-name="Эллипс 4" cx="2.307" cy="2.307" r="2.307" transform="rotate(90 28.453 28.454)"/><circle data-name="Эллипс 4" cx="2.307" cy="2.307" r="2.307" transform="rotate(90 21.917 34.99)"/><circle data-name="Эллипс 4" cx="2.307" cy="2.307" r="2.307" transform="rotate(90 15.38 41.527)"/><circle data-name="Эллипс 4" cx="2.307" cy="2.307" r="2.307" transform="rotate(90 9.853 47.054)"/><circle data-name="Эллипс 4" cx="2.307" cy="2.307" r="2.307" transform="rotate(90 3.653 53.254)"/><circle data-name="Эллипс 4" cx="2.307" cy="2.307" r="2.307" transform="rotate(90 -2.547 59.453)"/><circle data-name="Эллипс 4" cx="2.307" cy="2.307" r="2.307" transform="rotate(90 -8.746 65.653)"/><circle data-name="Эллипс 4" cx="2.307" cy="2.307" r="2.307" transform="rotate(90 -14.946 71.853)"/><circle data-name="Эллипс 4" cx="2.307" cy="2.307" r="2.307" transform="rotate(90 -21.146 78.053)"/><circle data-name="Эллипс 4" cx="2.307" cy="2.307" r="2.307" transform="rotate(90 -27.346 84.253)"/><circle data-name="Эллипс 4" cx="2.307" cy="2.307" r="2.307" transform="rotate(90 -32.873 89.78)"/><circle data-name="Эллипс 4" cx="2.307" cy="2.307" r="2.307" transform="rotate(90 -39.41 96.317)"/><circle data-name="Эллипс 4" cx="2.307" cy="2.307" r="2.307" transform="rotate(90 -45.946 102.853)"/><circle data-name="Эллипс 4" cx="2.307" cy="2.307" r="2.307" transform="rotate(90 2.307 2.307)"/><circle data-name="Эллипс 4" cx="2.307" cy="2.307" r="2.307" transform="rotate(90 -4.23 8.844)"/><circle data-name="Эллипс 4" cx="2.307" cy="2.307" r="2.307" transform="rotate(90 -10.766 15.38)"/><circle data-name="Эллипс 4" cx="2.307" cy="2.307" r="2.307" transform="rotate(90 -16.293 20.907)"/><circle data-name="Эллипс 4" cx="2.307" cy="2.307" r="2.307" transform="rotate(90 -22.493 27.107)"/><circle data-name="Эллипс 4" cx="2.307" cy="2.307" r="2.307" transform="rotate(90 -28.693 33.307)"/><circle data-name="Эллипс 4" cx="2.307" cy="2.307" r="2.307" transform="rotate(90 -34.893 39.507)"/><circle data-name="Эллипс 4" cx="2.307" cy="2.307" r="2.307" transform="rotate(90 21.917 21.917)"/><circle data-name="Эллипс 4" cx="2.307" cy="2.307" r="2.307" transform="rotate(90 15.38 28.454)"/><circle data-name="Эллипс 4" cx="2.307" cy="2.307" r="2.307" transform="rotate(90 8.844 34.99)"/><circle data-name="Эллипс 4" cx="2.307" cy="2.307" r="2.307" transform="rotate(90 3.317 40.517)"/><circle data-name="Эллипс 4" cx="2.307" cy="2.307" r="2.307" transform="rotate(90 -2.883 46.717)"/><circle data-name="Эллипс 4" cx="2.307" cy="2.307" r="2.307" transform="rotate(90 -9.083 52.917)"/><circle data-name="Эллипс 4" cx="2.307" cy="2.307" r="2.307" transform="rotate(90 -15.283 59.117)"/><circle data-name="Эллипс 4" cx="2.307" cy="2.307" r="2.307" transform="rotate(90 -21.483 65.317)"/><circle data-name="Эллипс 4" cx="2.307" cy="2.307" r="2.307" transform="rotate(90 -27.683 71.517)"/><circle data-name="Эллипс 4" cx="2.307" cy="2.307" r="2.307" transform="rotate(90 -33.883 77.717)"/><circle data-name="Эллипс 4" cx="2.307" cy="2.307" r="2.307" transform="rotate(90 -39.41 83.244)"/><circle data-name="Эллипс 4" cx="2.307" cy="2.307" r="2.307" transform="rotate(90 -45.946 89.78)"/><circle data-name="Эллипс 4" cx="2.307" cy="2.307" r="2.307" transform="rotate(90 -52.483 96.317)"/><circle data-name="Эллипс 4" cx="2.307" cy="2.307" r="2.307" transform="rotate(90 -34.556 52.243)"/><circle data-name="Эллипс 4" cx="2.307" cy="2.307" r="2.307" transform="rotate(90 -40.756 58.443)"/><circle data-name="Эллипс 4" cx="2.307" cy="2.307" r="2.307" transform="rotate(90 -46.956 64.643)"/><circle data-name="Эллипс 4" cx="2.307" cy="2.307" r="2.307" transform="rotate(90 -52.483 70.17)"/><circle data-name="Эллипс 4" cx="2.307" cy="2.307" r="2.307" transform="rotate(90 -59.02 76.707)"/><circle data-name="Эллипс 4" cx="2.307" cy="2.307" r="2.307" transform="rotate(90 -65.556 83.243)"/><circle data-name="Эллипс 4" cx="2.307" cy="2.307" r="2.307" transform="rotate(90 15.38 15.38)"/><circle data-name="Эллипс 4" cx="2.307" cy="2.307" r="2.307" transform="rotate(90 8.844 21.917)"/><circle data-name="Эллипс 4" cx="2.307" cy="2.307" r="2.307" transform="rotate(90 2.307 28.454)"/><circle data-name="Эллипс 4" cx="2.307" cy="2.307" r="2.307" transform="rotate(90 -3.22 33.98)"/><circle data-name="Эллипс 4" cx="2.307" cy="2.307" r="2.307" transform="rotate(90 -9.42 40.18)"/><circle data-name="Эллипс 4" cx="2.307" cy="2.307" r="2.307" transform="rotate(90 -15.62 46.38)"/><circle data-name="Эллипс 4" cx="2.307" cy="2.307" r="2.307" transform="rotate(90 -21.819 52.58)"/><circle data-name="Эллипс 4" cx="2.307" cy="2.307" r="2.307" transform="rotate(90 -28.019 58.78)"/><circle data-name="Эллипс 4" cx="2.307" cy="2.307" r="2.307" transform="rotate(90 -34.219 64.98)"/><circle data-name="Эллипс 4" cx="2.307" cy="2.307" r="2.307" transform="rotate(90 -40.419 71.18)"/><circle data-name="Эллипс 4" cx="2.307" cy="2.307" r="2.307" transform="rotate(90 -45.946 76.707)"/><circle data-name="Эллипс 4" cx="2.307" cy="2.307" r="2.307" transform="rotate(90 -52.483 83.243)"/><circle data-name="Эллипс 4" cx="2.307" cy="2.307" r="2.307" transform="rotate(90 -59.019 89.78)"/><circle data-name="Эллипс 4" cx="2.307" cy="2.307" r="2.307" transform="rotate(90 -41.093 45.707)"/><circle data-name="Эллипс 4" cx="2.307" cy="2.307" r="2.307" transform="rotate(90 -47.293 51.907)"/><circle data-name="Эллипс 4" cx="2.307" cy="2.307" r="2.307" transform="rotate(90 -53.493 58.107)"/><circle data-name="Эллипс 4" cx="2.307" cy="2.307" r="2.307" transform="rotate(90 -59.02 63.634)"/><circle data-name="Эллипс 4" cx="2.307" cy="2.307" r="2.307" transform="rotate(90 -65.556 70.17)"/><circle data-name="Эллипс 4" cx="2.307" cy="2.307" r="2.307" transform="rotate(90 -72.093 76.707)"/></g><g transform="translate(0 -.002)" filter="url(#a)"><rect data-name="Прямоугольник 6" width="110" height="111" rx="26" transform="translate(74 64)" fill="#32abe0"/></g></g><g data-name="Сгруппировать 10783"><g data-name="Сгруппировать 10782" fill="#fff"><path data-name="Контур 12486" d="M143.3 125.857a2.375 2.375 0 10-1.1 4.62c7.378 1.751 10.053 4.34 10.053 5.656 0 2.839-9.473 7.126-23.753 7.126s-23.749-4.288-23.749-7.126c0-1.316 2.677-3.905 10.05-5.656a2.375 2.375 0 10-1.1-4.62c-8.834 2.095-13.706 5.743-13.706 10.276 0 7.8 14.342 11.877 28.5 11.877s28.5-4.081 28.5-11.877c.013-4.533-4.854-8.181-13.695-10.276z"/><path data-name="Контур 12487" d="M128.505 110.005a2.375 2.375 0 10-2.375-2.375 2.376 2.376 0 002.375 2.375z"/><path data-name="Контур 12488" d="M125.412 135.262l.967 1.933a2.377 2.377 0 004.252 0l2.048-4.1a164.357 164.357 0 018.537-14.485l1.354-2.131a16.623 16.623 0 00-16.008-25.365 16.614 16.614 0 00-11.454 26.35 119.508 119.508 0 0110.304 17.798zm3.093-34.762a7.126 7.126 0 11-7.126 7.126 7.135 7.135 0 017.126-7.126z"/></g></g></g></svg>